<?xml version="1.0" encoding="UTF-8"?>
<!DOCTYPE svg PUBLIC "-//W3C//DTD SVG 1.1//EN" "http://www.w3.org/Graphics/SVG/1.1/DTD/svg11.dtd">
<!-- Creator: CorelDRAW X8 -->
<svg xmlns="http://www.w3.org/2000/svg" xml:space="preserve" width="50mm" height="50mm" version="1.1" style="shape-rendering:geometricPrecision; text-rendering:geometricPrecision; image-rendering:optimizeQuality; fill-rule:evenodd; clip-rule:evenodd"
viewBox="0 0 5000 5000"
 xmlns:xlink="http://www.w3.org/1999/xlink">
 <defs>
  <style type="text/css">
   <![CDATA[
    .fil1 {fill:#7F7F7F}
    .fil0 {fill:#C6DFB7}
   ]]>
  </style>
 </defs>
 <g id="Camada_x0020_1">
  <metadata id="CorelCorpID_0Corel-Layer"/>
  <g id="_1159495975760">
   <path class="fil0" d="M662 2294c-7,447 244,917 576,1206 329,287 757,385 1246,361l-26 -207c-407,-5 -601,-10 -898,-188 -794,-477 -888,-1499 -295,-2138 575,-621 1667,-575 2167,216 177,309 211,507 215,853l204 10c30,-552 -132,-910 -395,-1192 -587,-656 -1621,-710 -2266,-115 -324,299 -522,753 -528,1194z"/>
   <path class="fil0" d="M2401 3201c-231,11 -345,17 -600,-128 -545,-309 -586,-1063 -200,-1444 436,-431 1137,-361 1460,167 126,224 132,333 133,580l207 8c23,-496 -195,-924 -640,-1134 -495,-235 -1045,-56 -1318,239 -689,748 -179,2008 981,1911l-23 -199z"/>
   <path class="fil0" d="M2326 2750c-140,4 -354,-44 -456,-235 -104,-192 -52,-398 63,-520 242,-258 770,-181 779,338l236 16c22,-669 -743,-973 -1182,-520 -434,449 -78,1188 593,1150l-33 -229z"/>
   <path class="fil1" d="M3349 3184c-111,-105 -464,-431 -621,-410 8,202 618,840 771,971 58,51 117,111 180,159 87,68 292,262 438,260 -5,-245 -554,-749 -689,-890 -28,-30 -49,-62 -79,-90z"/>
   <path class="fil1" d="M4759 2680l0 -35c-273,-152 -1773,-183 -1961,4 35,117 305,121 426,132 361,36 1272,64 1535,-101z"/>
   <path class="fil1" d="M3062 3675c-108,-252 -182,-431 -327,-656 -19,-30 -42,-67 -71,-99 -87,-97 -94,-32 -95,-31 -72,226 502,1768 751,1795 64,-193 -182,-830 -258,-1009z"/>
  </g>
 </g>
</svg>
